<mxfile host="app.diagrams.net" modified="2023-10-16T17:53:57.478Z" agent="Mozilla/5.0 (Windows NT 10.0; Win64; x64; rv:109.0) Gecko/20100101 Firefox/118.0" etag="-h5Z3kU1N_A9LrIHddfC" version="22.0.4" type="device">
  <diagram name="PÃ¡gina-1" id="aL_qAO2PBnCTS6AlZirb">
    <mxGraphModel dx="874" dy="434" grid="1" gridSize="10" guides="1" tooltips="1" connect="1" arrows="1" fold="1" page="1" pageScale="1" pageWidth="827" pageHeight="1169" math="0" shadow="0">
      <root>
        <mxCell id="0" />
        <mxCell id="1" parent="0" />
      </root>
    </mxGraphModel>
  </diagram>
</mxfile>
